<?xml version="1.0" encoding="UTF-8"?><svg xmlns="http://www.w3.org/2000/svg" xmlns:xlink="http://www.w3.org/1999/xlink" height="442.6" preserveAspectRatio="xMidYMid meet" version="1.0" viewBox="-3.0 -2.1 459.6 442.6" width="459.6" zoomAndPan="magnify"><g><g><g id="change1_1"><path d="M326.4,271.3c-7.7-13.5-24.2-19.7-24.2-19.7c0,0,0,0,0,0c-0.3-0.5-5.4-10-11.6-22c-4.2-8.2-9-17.6-13-26.1 c-2-4.2-3.8-8.1-5.2-11.6c-2.8-6.7-8.4-11.8-15.3-14.2c-16.2-5.5-46.5-12.2-74.2,1.6c-0.1,0.1-0.3,0.1-0.4,0.2 c0,0-20.5-22-41-18.3c-9.5,1.7-15.2,17.9-22.2,38.9c-1.6,4.7-3.2,9.5-4.9,14.6c0,0,0,0,0,0c-7.5-1.8-18.5-2.5-30,3.6 c-20.7,11-21,37.9,1.2,44.1c0,0-28.1,18.7-32.4,27.1l-15.6,10.3c0,0-1.3,2.4,1.1,2.4l15.6-10c4.2,0.7,18.2-9,29.2-17.3 c0,0,0,0,0,0c-0.5,0.6-1.1,1.2-1.6,1.8c-7.8,8.7-16.7,17.3-25.8,25.9c-18.5,17.7-37.4,35.6-47.9,54.4c0,0,0,0,0,0 c-8.1,14.6-11.2,29.8-5,45.9c6.7,17.5,22.8,27.5,42.9,31.3c34,6.3,79.5-5.1,110.1-27.6c48.7-35.9,46.1-44.3,97-55.3 c39.4-8.5,59.3-21.4,69.5-40.2v0c3-5.5,5.1-11.4,6.7-17.9C331.4,284.5,329.8,277.2,326.4,271.3z M78.7,238.4 c7.7-14.5,22-16.8,32.6-14.9c-3.2,8.7-6.8,17.5-11.2,26c0,0.1-0.1,0.1-0.1,0.2c-8.4,4.7-16.8,3.1-20.2-1.5 C78.1,245.9,76.6,242.3,78.7,238.4z" fill="#FFF1E6"/></g><g id="change2_1"><path d="M46.2,434.3C26,430.5,9.9,420.6,3.3,403c-6.1-16.2-3.1-31.3,5-45.9c0,0,0,0,0,0s38.2,9.7,31.9,25.8 C35.4,395.4,29.9,418.9,46.2,434.3z M326.4,271.3c0,0-5.1,22.7-30.4,32.2c-21.3,8.1-1.6,30.7,26.6,7.7v0c3-5.5,5.1-11.4,6.7-17.9 C331.4,284.5,329.8,277.2,326.4,271.3z" fill="#281C22"/></g><g id="change3_1"><path d="M277.7,203.4c0,0-9.9,21.5-45.1,34.9c-35.1,13.4-67.5-5.5-67.5-5.5s21.4-22.6,23.6-31.6 c1.4-5.7-1-14.7-5.7-22.1c27.6-13.9,58-7.1,74.2-1.6c6.9,2.3,12.4,7.5,15.3,14.2C273.9,195.3,275.7,199.2,277.7,203.4z" fill="#78D9FF"/></g><g id="change4_1"><path d="M245.5,308.7c-39,7.7-70.2,40-70.2,40s5.2-46.7,60.7-66.1c55.4-19.5,54.7-53,54.7-53 c6.2,12,11.3,21.5,11.6,22c0,0,0,0,0,0C309.3,274.9,284.5,301.1,245.5,308.7z" fill="#D36AD1"/></g><g id="change2_2"><path d="M103.6,247.6c6.7-5.8,11.8-14,15.2-22.1c0-0.1,0-0.2,0-0.2c0.7,0.2,1.4,0.5,2.1,0.7c0.6,0.2,0.9-0.7,0.3-1 c-7.9-3-16.7-4.1-25-1.8C89,225,81.7,230.2,78.7,237c-1.4,3.2-2.1,7-0.4,10.1c1.5,2.7,4.2,4.5,7,5.4 C91.9,254.6,98.6,251.9,103.6,247.6z M80.5,248.4c-3.8-4.2-1.8-10.3,1.1-14.4c2.7-3.7,6.7-6.7,10.9-8.6c7.9-3.6,17.3-3.1,25.5-0.5 c-0.1,0.1-0.2,0.1-0.2,0.2c-1.2,2.9-2.7,5.8-4.3,8.6c0,0,0,0-0.1-0.1c-1.1-0.7-2.1-1.4-3.1-2.1c-0.5-0.4-1,0.5-0.5,0.9 c1,0.7,2.1,1.4,3.1,2.1c0,0,0,0,0,0c-1,1.7-2.1,3.4-3.3,4.9c-1-0.5-1.9-1.1-2.8-1.8c-0.5-0.4-1.2,0.3-0.7,0.7 c0.9,0.7,1.8,1.4,2.9,1.9c-1.9,2.4-3.9,4.6-6.1,6.5C96.9,252,86.6,255.2,80.5,248.4z M140.6,245.7c1.2,5.1,2.4,10.2,4,15.1 c2.6,7.9,6.5,18.6,15,21.7c4.1,1.5,8.1,0.5,11.6-1.9c3.3-2.4,4.1-6.3,4.1-10.2c0.1-9.2-4.6-18-10.6-24.8 c-6.5-7.3-15.1-12.7-24.6-14.9c-0.2-0.4-0.7-0.5-0.9-0.1c-0.4,0.1-0.5,0.7-0.1,0.9C138.6,236.3,139.5,241,140.6,245.7z M145.9,261.4c-1.1-3.3-2-6.6-2.8-9.9c2.8,0.4,5.5,0.9,8.2,1.4c-1.9,2.8-3.7,5.7-5.3,8.7C146,261.6,145.9,261.5,145.9,261.4z M173.3,262.6c1.1,4.1,1.6,8.9,0.4,13c-1.4,4.8-7.5,7.5-12.2,6.4c-8.4-1.9-12.5-11.6-15.1-19.1c4-7.3,8.7-14.1,14-20.5 C166.5,247.9,171.2,254.8,173.3,262.6z M140.1,231.7c7.1,1.7,13.9,5.3,19.5,10.1c-1.5,1.8-2.9,3.6-4.3,5.4 c-4.3-1.4-8.7-2.3-13.2-2.8c-0.6-0.1-0.6,0.9,0,1c4.3,0.4,8.5,1.3,12.6,2.6c-1,1.3-1.9,2.7-2.9,4c0,0-0.1,0-0.1,0 c-3-0.6-6-1.2-9-1.6c-0.2-0.9-0.5-1.9-0.7-2.8C140.8,242.4,139.5,237.1,140.1,231.7z M36.1,301.4c0,0.1,0.1,0.2,0.2,0.2 c2.2,1.4,4.6-0.9,6.4-2c3.6-2.3,7.2-4.6,10.9-6.9c0.1,0,0.1-0.1,0.1-0.1c0.1,0.1,0.2,0.2,0.4,0.2c4.2-0.2,7.9-3,11.3-5.1 c4.3-2.7,8.4-5.5,12.4-8.5c5.2-3.9,10.2-7.9,15.2-12c0,0.2,0.2,0.4,0.5,0.4c5.9-0.3,11.9-0.6,17.8-0.5c0.3,0,0.5,0,0.8,0 c0.1,0.1,0.3,0.1,0.4,0c5.5,0,11.5,0,16.7,1.6c0,1.2-0.1,2.4-0.1,3.6c-12.9-2.3-26.4-1.4-39.5-1.3c-0.6,0-0.6,1,0,1 c6.6-0.1,13.4-0.3,20.1-0.3c0,0,0,0,0,0c4.8,6.1,9.1,12.6,12.9,19.4c0.3,0.6,1.2,0.1,0.9-0.5c-3.7-6.6-7.9-12.9-12.6-18.9 c1.7,0,3.4,0.1,5.1,0.2c0,0.1,0.1,0.2,0.1,0.2c3.9,4.3,7.3,9.1,10.2,14.2c0.3,0.6,1.2,0.1,0.9-0.5c-2.8-5-6.1-9.6-9.9-13.9 c3.9,0.2,7.8,0.6,11.7,1.3c0,1.4-0.1,2.9-0.1,4.3c-0.1,3.9-0.1,7.8,0.1,11.6c-0.1,0-0.1,0.1-0.1,0.2c-1,1.6-1.9,3.2-3,4.8 c-13.2-1.1-26.4-1.2-39.5-0.4c0.3-0.1,0.5-0.4,0.3-0.7c-2-4.5-4.2-8.8-6.5-13.1c-0.3-0.6-1.2-0.1-0.9,0.5 c2.4,4.3,4.5,8.7,6.5,13.1c0.1,0.1,0.2,0.2,0.3,0.2c-7.1,0.4-14.1,1.1-21.1,2.1c-0.2-0.1-0.4,0-0.6,0.2 c-7.6,11.2-2.5,26.6,10.4,30.9c6.8,2.2,14.4,0.3,20.7-2.5c6.8-3,12.9-7.6,18.1-12.8c4.9-5,9.1-10.7,12.9-16.6 c0.1-0.1,0.1-0.1,0.1-0.2c0.8-1.3,1.6-2.6,2.4-3.9c0.2,2.8,0.4,5.6,0.8,8.4c0.7,5,1.6,10.4,5.7,13.7c0,0.1,0,0.2,0,0.3 c1,6.1,1.8,12.3,2.9,18.5c0,0.2,0.2,0.3,0.4,0.4c1.5,0.5,3-0.3,3.6-1.7c0.1-0.2,0-0.3-0.1-0.4c0,0,0-0.1,0-0.1 c-0.8-5.9-1.6-11.8-2.5-17.7c3.6-3.1,1.6-12.9,1.3-16.2c-0.9-8.2-1.9-16.4-2.8-24.6c0.3,0.8,0.6,1.5,0.9,2.3 c4.2,9.9,12.5,18.7,24.1,17.6c11.3-1.1,18-10.4,20.3-20.9c2.6-11.8-3-23.2-11.2-31.5c-4.8-4.8-10.4-9-16.3-12.5 c-4.9-2.9-11.5-6.2-17-3c0,0-0.1,0.1-0.1,0.1c-1.6-2.4-3.8-4.2-6.5-5.3c-2.5-0.9-6-1.5-8.1,0.4c-4.1-3.3-9.7-4.6-14.8-5.3 c-5.6-0.8-11.4-0.6-16.9,0.8c-9.5,2.5-18,8.9-22.3,17.8c-4.2,8.9-3,19,4.6,25.6c2.7,2.3,5.8,3.9,9.1,4.7 c-4.9,3.2-9.5,7.1-14.1,10.8c-5.8,4.7-12.3,9.4-16.9,15.3c-0.1,0.1-0.1,0.2-0.1,0.3c-3.6,2.4-7.2,4.8-10.9,7.1 c-1.7,1.1-3.7,2.1-5.3,3.5c-0.7,0.6-1,0.9-1,1.8C35.8,301.2,35.9,301.3,36.1,301.4z M91.3,325c-8.6,2.9-17.9,2.7-24.5-4.3 c-5.2-5.6-6.3-13.6-3.5-20.4c0.1,0.1,0.2,0.2,0.4,0.2c8.2-0.8,16.5-1.2,24.7-1.4c-0.1,0.1-0.1,0.3,0,0.5 c3.9,6.2,7.4,12.7,10.4,19.5c0.3,0.6,1.1,0.1,0.9-0.5c-3-6.7-6.5-13.2-10.4-19.5c0,0,0,0,0,0c2,0,4.1-0.1,6.1-0.1 c0,0.1,0,0.2,0.1,0.3c3.1,5.7,6,11.6,8.7,17.5c0.3,0.6,1.1,0.1,0.9-0.5c-2.7-5.8-5.6-11.6-8.6-17.2c8.5,0,17.1,0.3,25.6,0.9 C114.1,310.9,104.3,320.6,91.3,325z M122.6,299C122.6,299,122.6,298.9,122.6,299c-19.7-1.5-39.4-1.3-58.9,0.5c0,0,0,0-0.1,0 c0.4-0.9,0.9-1.8,1.5-2.6c19.9-2.8,40.1-3.4,60.2-1.8C124.4,296.4,123.5,297.7,122.6,299z M93.8,266.4c2.2-1.8,4.4-3.7,6.6-5.5 c0.1-0.1,0.1-0.1,0.1-0.2c0.5-0.2,1-0.5,1.5-0.7c1.1,1.8,2.3,3.6,3.5,5.3c0.4,0.5,1.2,0,0.9-0.5c-1.2-1.7-2.4-3.5-3.5-5.3 c1-0.5,2-1.1,2.9-1.8c2,2.6,3.8,5.3,5.6,8.1C105.5,265.8,99.6,266.1,93.8,266.4z M129.6,255.6c-0.1,4-0.3,7.9-0.4,11.9 c-5.2-1.6-11.2-1.5-16.7-1.6c-1.9-3-3.9-5.9-6-8.7c2.6-1.9,5-4,7.1-6.4c3.1-0.3,6.1-0.5,9.2-0.5c1.7,1.4,3.5,2.7,5.2,4.1 c0.5,0.4,1.2-0.3,0.7-0.7c-1.4-1.1-2.9-2.3-4.3-3.4c1.6,0,3.3,0.1,4.9,0.2c0.1,0,0.2,0,0.3-0.1 C129.7,252.1,129.7,253.9,129.6,255.6z M129.7,249.6c-0.1-0.1-0.2-0.1-0.3-0.1c-4.9-0.3-9.8-0.2-14.8,0.2c2.7-3.1,5.1-6.5,7.3-10 c0,0,0.1,0.1,0.1,0.1c1.1,0.8,2.1,1.6,3.2,2.4c0.5,0.4,1-0.5,0.5-0.9c-1.1-0.8-2.1-1.6-3.2-2.4c0,0-0.1,0-0.1,0 c1.1-1.8,2.2-3.6,3.2-5.4c0.7,0.6,1.4,1.1,2.3,1.5c1,0.5,2.2,0.6,3.3,0.5c-0.7,2.7-1,5.4-1.2,8.1c-3.2-0.3-6.3-0.3-9.5,0 c-0.6,0.1-0.6,1.1,0,1c3.1-0.3,6.3-0.3,9.4,0C129.8,246.3,129.8,247.9,129.7,249.6z M139.4,290.1c0.4,3.2,3.5,17.8-0.4,21.3 c0,0-0.1,0-0.1,0.1c-0.5,0.4-1.2,0.7-2,0.7c-0.6,0-0.6,1,0,1c0.8,0,1.4-0.1,2-0.4c0.9,5.8,1.7,11.6,2.5,17.4c0,0,0,0,0,0.1 c-0.4,0.8-1.3,1.2-2.1,1c-1-6.1-1.8-12.1-2.8-18.2c0-0.1,0-0.1-0.1-0.1c0.1-0.2,0.1-0.4-0.1-0.5c-4.9-3.9-5.4-11.2-5.9-16.9 c-0.6-6.6-0.6-13.2-0.4-19.9c0.2-6.7,0.6-13.3,0.7-20c0.1-6.8-0.1-13.7,1.7-20.4c0.1,0,0.2-0.1,0.3-0.2c-0.8,11,0.9,22.6,4.5,33.1 c-0.1,0.1-0.2,0.2-0.2,0.4C137.8,275.7,138.6,282.9,139.4,290.1z M140,224.4c0.1-0.1,0.1-0.2,0.1-0.3c5.3-2.7,11.7,0.9,16.2,3.7 c4.7,2.9,9.2,6.1,13.2,9.8c8.1,7.4,14.6,17.8,13.6,29.2c-1,10.7-7.4,21.5-18.6,23.3c-12,1.9-20.6-7.3-24.7-17.6 c-4.8-11.9-7.2-25.5-6.1-38.3c0,0,0,0,0.1-0.1c1.1-1.2,1.6-2.9,2.4-4.3C137.2,227.9,138.6,226.1,140,224.4z M124.6,220 c0.1-0.1,0.1-0.2,0-0.3c0.1,0,0.2,0,0.3-0.1c2.1-2,6.2-0.8,8.5,0.3c2.2,1.1,3.9,2.8,5.1,4.8c-1,1.3-2,2.6-2.8,4.1 c-0.8,1.4-1.5,3.5-2.7,4.8c-0.1,0-0.1,0.1-0.2,0.2c-0.6,0.6-1.4,1-2.5,1c-1.8,0-3.2-0.7-4.3-1.8c0-0.3-0.2-0.5-0.5-0.6 C123,229,122.9,223.3,124.6,220z M79.9,259.7c-9.1-4.9-13.1-14.8-9.7-24.6c3-8.6,10.3-15.4,18.7-18.6c5.4-2.1,11.4-2.9,17.2-2.5 c5.8,0.4,13.1,1.6,17.7,5.4c0,0,0,0,0,0c-2.1,4.1-1.8,9.8,1.2,13.3c-4.7,8-9.6,16.1-16.9,22.1C100.3,261.2,89.2,264.7,79.9,259.7z M53.5,289.4c0.1-0.1,0.2-0.2,0.2-0.4c4.5-5.7,10.8-10.3,16.5-14.9c4.8-3.8,9.5-7.9,14.7-11.2c0.2-0.1,0.2-0.3,0.2-0.4 c4.2,0.8,8.5,0.5,12.7-0.8c-6.5,5.4-13,10.9-19.8,16c-3.5,2.6-7.1,5.2-10.8,7.6c-3.8,2.5-8.3,6.1-13,6.5c-0.4-0.4-0.6-0.9-0.4-1.5 c0.1-0.4-0.2-0.7-0.6-0.6C53.4,289.5,53.4,289.5,53.5,289.4z M41.4,297.4c1.4-0.9,2.7-1.8,4.1-2.7c2.5-1.6,5-3.3,7.5-4.9 c0,0-0.1,0.1-0.1,0.1c-0.2,0.6-0.1,1.3,0.2,1.8c0,0,0,0,0,0c-2.5,1.6-5,3.2-7.5,4.8c-1.1,0.7-2.2,1.4-3.3,2.1 c-1.2,0.8-3.7,3-5.3,2.1C37.2,299.7,40.6,297.9,41.4,297.4z M303.3,259c-0.1,10.7-5.2,20.7-12.6,28.2c-8.2,8.3-19,13.5-29.9,17.3 c-11,3.8-22.4,6.4-33.5,10.1c-10.2,3.5-19.7,8.2-28.5,14.4c-16.6,11.6-30.4,26.5-46.2,39.1c-7.6,6.1-15.7,11.7-24.6,15.9 c-9.7,4.6-20.1,7.6-30.7,9.3c-21.6,3.3-43.6,1.3-64.9-2.9c-0.6-0.1-0.4-1.1,0.3-1c24,4.7,49.1,6.8,73.1,1.2 c10.3-2.4,20.2-6.2,29.3-11.6c8.4-4.9,16.1-11,23.5-17.4c14.3-12.3,27.7-26.1,43.6-36.4c8.8-5.7,18.2-9.7,28.1-12.9 c10.6-3.4,21.5-5.9,32-9.7c19.1-7,39.6-21.3,39.7-43.9C302.4,258.3,303.4,258.3,303.3,259z M183.9,211.3c14.7,3.5,30,2.2,44.4-2.2 c7.1-2.1,14.2-4.9,20.7-8.5c1.2-0.6,2.4-1.3,3.5-2.1c-19.6-5.4-40.6-4.1-59.5,3.6c-0.6,0.2-0.9-0.7-0.3-1 c19.3-7.8,40.8-9,60.8-3.3c4.6-3.2,8.4-7.5,9.9-13.1c0.2-0.6,1.1-0.4,1,0.3c-1.8,6.9-7.1,11.9-13.1,15.5 c-6.6,3.9-13.9,6.8-21.1,9.1c-15.1,4.8-31.2,6.3-46.7,2.7C183,212.1,183.3,211.1,183.9,211.3z M91.9,292.6 c-2.7-5.6-5.5-11.2-8.6-16.6c-0.3-0.6,0.5-1.1,0.9-0.5c3.1,5.4,5.9,10.9,8.6,16.6C93.1,292.7,92.2,293.2,91.9,292.6z" fill="#281C22"/></g></g></g><g><g id="change1_2"><path d="M448.7,219.7C448.6,219.7,448.6,219.7,448.7,219.7c-11.3-29-38.1-59.1-55.5-88.1c-2.5-4.1-4.7-8.5-6.6-12.9 c15.2,22.7,22.7,29,26.2,29.6l12.1,14.6c0,0,1.9,0.5,2.6-1.6l-12.1-14.9c0.1-0.4,0.1-0.7,0.1-1.1c0-1.3-0.2-3.9-3.1-8.4 c-5.4-8.2-15.5-20.3-19.6-25.8c9.5,0.6,16.4-6.8,17.8-17.5c0.2-1.4-0.4-2.3-0.7-3.6c-3.8-16.6-24.8-24.7-37.4-27.9 c-3.9-27.9-5.5-51.3-16.2-55.4c-18.9-7.3-42.5,9.4-43.7,10.2c0,0,0,0,0,0C288-2,256.8-1.1,239.7,1.2c-7.2,1-13.6,5-17.7,11.1 c-2.1,3.1-4.5,6.6-7.2,10.3c-4.5,6.2-9.6,12.9-14.5,19.1c-10,12.9-18.8,23.7-18.8,23.7s0,0-0.1,0c-0.8,0.2-11.8,2.2-21.2,9.1 c-7.4,5.4-13.8,13.9-13.2,26.8c0.3,6.8,1.3,13.2,3.3,19.2c6.5,20.3,23.6,36.6,60.5,52.3c47.9,20.4,43.8,28.2,84.8,72.5 c24.4,26.4,63.7,45.5,97.1,47.6c22.9,1.5,43-5,53.8-22.4C456.6,254.3,455.4,237.2,448.7,219.7z M402,94.4 c-0.2,13.7-14.2,11-23.7-0.7c-1.9-8-3.4-16-4.6-23.7C382.5,71.9,402.2,78.1,402,94.4z" fill="#FFF1E6"/></g><g id="change4_2"><path d="M279.4,172.1c0,0-19.7-30.3-63.3-51.4c-25.9-12.5-36.9-35.5-34.7-55.3c0,0,0.1,0,0.1,0s8.8-10.8,18.8-23.7 c2.4,12,11.9,36.1,29.9,48.8C265.8,115.7,277.3,148,279.4,172.1z" fill="#D36AD1"/></g><g id="change2_3"><path d="M446.6,270.5c-10.8,17.5-30.9,23.9-53.8,22.4c28.8-12.1,19.2-42.2,19.2-52.4c0-11.4,36.6-20.8,36.6-20.8 s0,0,0,0C455.4,237.2,456.6,254.3,446.6,270.5z M181.5,115c-22.7-17.6-21.2-40.6-21.2-40.6c-7.4,5.4-13.8,13.9-13.2,26.8 c0.3,6.8,1.3,13.2,3.3,19.2C175.5,137.7,200.7,129.9,181.5,115z" fill="#281C22"/></g><g id="change3_2"><path d="M316.9,69.3c-10.6,2.9-41.4,2.7-63.3-6.2c-29.7-12.1-38.7-40.5-38.7-40.5c2.7-3.7,5.1-7.2,7.2-10.3 c4-6,10.5-10,17.7-11.1c17-2.4,48.3-3.3,72.9,15.8C288.6,35.9,316.9,69.3,316.9,69.3z" fill="#78D9FF"/></g><g id="change2_4"><path d="M304,48.2c-4.2,0.8-8.5,0.7-12.7,0.6c-23.9-1-51.4-10.1-61.4-33.9c-0.2-0.6,0.7-0.9,1-0.3 c0.9,2,1.9,4,3,5.9c0-0.1,0.1-0.2,0.2-0.3c3.3-1.5,7-2.1,10.6-2.6c10.1-1.2,20.6-0.5,30.5,1.7c10.3,2.3,20.6,6.8,27.7,14.8 c0.4,0.5-0.3,1.2-0.7,0.7c-3.9-4.4-8.8-7.7-14.1-10.2c-9.6-4.4-20.4-6.3-31-6.6c-7.3-0.2-15.9-0.2-22.7,2.9c-0.1,0.1-0.3,0.1-0.4,0 c2.7,4.2,6,8,9.9,11.1c9.6,7.8,21.7,12,33.7,14.1c8.3,1.5,17.5,2.5,25.8,0.9C304.4,47.1,304.6,48,304,48.2z M181.8,64.8 c-5,21.3,10,39.8,26.3,51.3c9.4,6.6,19.6,11.7,29.4,17.4c9.7,5.7,18.6,12.2,26.3,20.3c14,14.7,24.2,32.5,36.3,48.8 c5.9,7.9,12.3,15.5,19.8,22.1c7.8,6.8,16.6,12.4,26,16.7c21.4,9.8,45.2,13.4,68.5,14.3c0.6,0,0.6-1,0-1 c-20.9-0.8-41.9-3.8-61.5-11.4c-9.7-3.8-19-8.8-27.3-15.1c-7.9-6-14.7-13.3-20.8-21c-12.1-15.2-21.8-32.2-34.3-47.2 c-6.3-7.5-13.2-14.4-21.2-20c-9.3-6.6-19.6-11.7-29.4-17.5c-10.4-6-20.6-12.9-28.1-22.4c-7.7-9.8-12.1-22.6-9.2-34.9 C182.9,64.5,182,64.2,181.8,64.8L181.8,64.8z M326.1,269.4c-10.3-4.9-19.1-13.2-27.2-21.1c-10.6-10.4-20.4-21.6-29.3-33.4 c-0.4-0.5-1.3,0-0.9,0.5c9,11.9,18.8,23.2,29.5,33.7c8.1,8,17,16.3,27.4,21.3C326.2,270.5,326.7,269.7,326.1,269.4L326.1,269.4z M365.2,68.7c0.5,0,1,0.1,1.5,0.1c0,0,0.1,0,0.1,0c7.2,0.6,14.2,2.4,20.8,5.6c6.7,3.2,13,8.6,14.5,16.2c0.6,3.3,0.6,7.3-1,10.4 c-1.4,2.7-5.2,3.4-8,3c-7-1-13.6-6.9-17.2-12.6c-4.2-6.7-7.9-13.8-9.6-21.6c-0.4,0-0.7-0.1-1.1-0.1 C364.5,69.7,364.5,68.7,365.2,68.7z M367.3,69.8c0.5,2.1,1.1,4.1,1.8,6.2c0,0,0-0.1,0.1-0.1c1.2-1,2.5-1.9,4-2.5 c0.6-0.3,1.1,0.6,0.5,0.9c-1.4,0.6-2.6,1.4-3.8,2.4c-0.2,0.1-0.4,0.1-0.5,0.1c0.5,1.3,1,2.6,1.6,3.9c1-0.6,1.9-1.2,2.9-1.7 c0.6-0.3,1.1,0.5,0.5,0.9c-1,0.6-2,1.2-3,1.8c1.8,3.9,4,7.6,6.4,10.9c2.6,3.6,6,6.5,9.9,8.5c2.2,1.1,4.6,2.2,7.2,2.2 c1.8,0,4.2-0.7,5.3-2.3c0.6-0.9,0.8-2.2,1-3.2C404.6,79.4,382.1,71.2,367.3,69.8z M338.5,101c-3.5,8.1-9.7,13.7-18.3,15.9 c-3.5,0.9-7.6,1-10.5-1.5c-3-2.6-3.4-7.1-3-10.8c0.8-9.3,7-17.2,13.7-23.3c6-5.5,13-9.9,20.6-13c0.1-0.1,0.3-0.2,0.4-0.2 c0.8-0.3,1.5-0.6,2.3-0.9c0.6-0.2,0.9,0.7,0.3,1c-0.7,0.3-1.4,0.5-2.1,0.8C343.6,79.8,342.8,91.1,338.5,101z M339.3,95.9 c0.9-2.9,1.5-5.8,1.9-8.7c-4.3-1.3-8.7-2.1-13.2-2.4c-0.6,0-0.6-1,0-1c4.5,0.3,9,1.1,13.3,2.4c0.7-5.5,0.5-11.1-0.4-16.6 c-7.4,3.1-14.2,7.4-20.1,12.9c-6,5.6-11.5,12.5-12.9,20.7c-0.8,4.7-0.4,11.1,4.8,12.9c4.2,1.5,9.3-0.4,13.1-2.2 C333,110.2,337.1,103.3,339.3,95.9z M427.5,161c0,1.5-1.3,2.6-2.8,2.4c-0.2,0-0.3-0.1-0.3-0.3c-0.1,0-0.3-0.1-0.4-0.2 c-3.7-4.9-7.6-9.6-11.6-14.2c-0.1-0.1-0.1-0.1-0.1-0.2c-0.8,0-1.7-0.2-2.3-0.5c-4.6-2-8-7.3-11-11.1c-4.5-5.9-8.5-12.1-12.4-18.4 c-0.1,0.2-0.3,0.4-0.6,0.3c-4.7-1.7-9.5-3.1-14.4-4.3c-1.3,0.8-2.7,1.7-4,2.6c5.8,1.4,11.6,2.9,17.3,4.7c0.6,0.2,0.4,1.2-0.3,1 c-6-1.8-12-3.4-18.1-4.9c0,0,0,0-0.1,0c-6.3,4-12.5,8.1-18.6,12.3c-0.5,0.4-1-0.5-0.5-0.9c10.7-7.4,21.6-14.5,32.8-21.2 c-0.6-0.9-1.1-1.8-1.7-2.7c-0.1-0.2-0.1-0.3,0-0.4c0,0,0,0-0.1,0c-11.4,6.6-22.5,13.6-33.3,21.1c0,0,0.1,0.1,0.1,0.2 c1.3,2.9,2.7,5.9,4,8.8c0.1,0,0.1,0,0.2,0c9.8,1.1,19.5,2.5,29.1,4.4c0.6,0.1,0.4,1.1-0.3,1c-9.5-1.8-19-3.2-28.6-4.3 c0.8,1.7,1.6,3.4,2.5,5c6.7,0.6,13.4,1.3,20,2.2c0.6,0.1,0.4,1.1-0.3,1c-6.4-0.9-12.8-1.6-19.2-2.2c3.6,7.1,7.7,13.9,12.8,19.9 c0-0.1,0.1-0.2,0.1-0.2c9-9.8,18.6-19,28.6-27.8c0.5-0.4,1.2,0.3,0.7,0.7c-2.3,2-4.6,4.1-6.8,6.1c3.8,0.8,7.5,1.5,11.3,2.1 c0.6,0.1,0.4,1.1-0.3,1c-4-0.7-8-1.4-11.9-2.2c-1.2,1.2-2.5,2.3-3.7,3.5c6.5,0.8,12.8,2.2,19.1,4c0.6,0.2,0.4,1.1-0.3,1 c-6.3-1.9-12.7-3.2-19.2-4c-0.2,0-0.3-0.1-0.3-0.2c-5.6,5.4-11.1,10.9-16.4,16.6c-0.1,0.1-0.2,0.1-0.3,0.1c2,2.3,4.2,4.5,6.5,6.4 c6.3,5.3,14.5,8.7,22.8,6.5c8.4-2.3,13.3-10.7,11.1-19.2c-0.2-0.6,0.8-0.9,1-0.3c1.7,6.4-0.5,13.4-5.8,17.5 c-10.9,8.3-25,1.4-33.3-7.1c-10.6-11-17.3-25.1-23.6-38.9c-1.1,5.9-2.1,12.2-4.7,17.7c-1.6,3.5-4.2,6.3-7.7,7.4 c0,0.1,0.1,0.2,0,0.3c-1.6,5.7-3.2,11.5-4.8,17.2c0,0.2-0.1,0.3-0.3,0.3c0,0.1-0.1,0.2-0.2,0.3c-0.9,0.6-2,0.4-2.8-0.3 c-0.1-0.1-0.2-0.3-0.1-0.4c-0.1-0.1-0.1-0.2-0.1-0.4c1.5-5.7,3-11.4,4.5-17.1c-1.2-0.6-1.6-1.9-1.9-3.5c-0.7-3.3-0.6-6,0.1-9.3 c1.5-6.3,3.2-12.6,5.3-18.7c-1,0.9-2.1,1.7-3.2,2.4c-11,6.7-26,3.7-31.6-8.4c-6-13,0.5-27.3,9.7-36.9c9.6-9.9,22.7-15.9,36.4-16.9 c0.4,0,0.8,0,1.1,0c1.8-2.6,4.6-3.7,7.7-4c3.5-0.3,7.6-0.3,10.4,2.2c0.1,0.1,0.2,0.3,0.1,0.4c0,0,0,0,0,0c0.1-0.2,0.3-0.4,0.6-0.4 c12.6,1.9,25.9,5.5,35.9,13.8c7.5,6.2,14.7,15.6,11.1,25.8c-2.5,6.9-9.3,12.3-16.4,12.5c4.3,5.3,8.7,11,12.8,16.6 c2.2,3,4.2,5.7,6.3,8.8c1.7,2.5,2.9,4.8,3.1,7.8c0,0.3-0.1,1.1-0.2,1.4c3.6,4.8,7.3,9.6,11.1,14.2c0,0,0,0.1,0,0.1 C427.4,160.6,427.5,160.8,427.5,161z M363.1,60.4c0.1,3.7,0.2,9-2,12.1c-0.2,0.2-0.4,0.4-0.5,0.6c0,0.1,0.1,0.1,0.1,0.2 c0.6,3.9,1.9,7.6,3.6,11.2c0.2,0.1,0.3,0.3,0.3,0.6c2.4,4.7,5.6,9.1,9,13.1c4.1,4.8,9,9.8,15.1,11.8c10.3,3.4,20.8-5.5,21.2-15.9 c0.4-10.2-9.5-18.8-17.4-23.7c-8.8-5.5-19-8.3-29.2-9.8C363.2,60.6,363.2,60.5,363.1,60.4z M363.7,85.8c-2,1.3-4,2.7-6,4.1 c3.5,0.9,7,2,10.5,3.1C366.6,90.7,365.1,88.3,363.7,85.8z M350.3,84.4c-0.1,1.2-0.1,2.4-0.2,3.5c1.5-1.1,3-2.2,4.5-3.3 c-1.4-0.4-2.8-0.8-4.2-1.1C350.4,83.9,350.4,84.1,350.3,84.4C350.3,84.4,350.3,84.4,350.3,84.4z M361.3,80.2 c-0.7-2-1.3-4.1-1.6-6.3c-2.2,1.7-5.2,2.1-7.9,1.9c-0.3,0-0.4-0.2-0.5-0.5c0,2.4-0.2,4.9-0.7,7.3c1.5,0.3,2.9,0.7,4.4,1.1 c0.2,0.1,0.3,0.2,0.3,0.4C357.3,82.8,359.3,81.5,361.3,80.2z M345.8,61.6c3.2,1,4.5,4.9,5.1,8.2c0.3,1.8,0.4,3.5,0.4,5.3 c0-0.2,0.2-0.4,0.5-0.4c3.9,0.4,8.1-0.7,9.4-4.9c0.9-3,1-6.6,0.9-9.7c0,0,0,0,0,0c-2.4-2.1-5.9-2.1-9-1.9 C350.2,58.5,347.6,59.4,345.8,61.6z M332.5,119.7c4.6-4.1,7.7-9.6,10.1-15.3c2.8-6.4,5.2-13.1,6.7-19.9c1-4.4,1.4-8.8,0.9-13.3 c-0.4-3.7-1.7-9.3-6.5-9c-14.2,1-27.9,7.6-37.3,18.3c-8.4,9.5-14,23.6-7.2,35.6C306.1,128.5,322.7,128.5,332.5,119.7z M331.5,152.8 c-0.5,0.1-1,0.2-1.5,0.2c0,0-0.1,0-0.1,0c0,0,0,0,0,0c0,0,0,0,0,0c0,0,0,0,0,0c0,0,0,0,0,0c-1.5,5.6-3,11.2-4.5,16.9 c0.4,0.3,1,0.3,1.5,0c0,0,0,0,0,0C328.3,164.1,329.9,158.4,331.5,152.8z M341.1,139.5c1.1-4.3,2.1-8.7,3-13.1 c-0.3-0.1-0.5-0.7-0.1-0.9c0.1-0.1,0.2-0.2,0.3-0.2c0.2-1.1,0.4-2.2,0.6-3.4c0.5-2.8,1-5.6,1.4-8.5c-0.4-0.2-0.4-0.9,0.1-0.9 c1.1-7.6,2-15.2,2.5-22.8c-1.8,6.5-4.2,12.9-7.2,18.8c-2,4.1-4.6,8-7.9,11.2c-1.9,5.1-3.4,10.4-4.8,15.6c-0.7,2.8-1.7,5.7-1.9,8.6 c-0.1,2,0.2,7.4,2.8,8C336.7,151.6,339.6,145.1,341.1,139.5z M345.4,124.5c4.6-3.2,9.2-6.3,13.9-9.3c-4-0.6-8-1.2-12.1-1.6 C346.8,117.3,346.1,120.9,345.4,124.5z M377.7,104.1c-2.1-2-4-4.1-5.8-6.2c-0.9-1.1-1.8-2.3-2.7-3.4c0,0,0,0-0.1,0 c-4.1-1.4-8.2-2.6-12.4-3.7c-2,1.5-4,3-5.9,4.6c-0.5,0.4-1.2-0.3-0.7-0.7c4.2-3.5,8.6-6.7,13.1-9.7c-0.6-1.2-1.1-2.5-1.6-3.7 c-4,2.6-7.9,5.3-11.6,8.1c-0.4,6.1-1,12.2-1.8,18.2c5.5,0.8,10.9,1.9,16.3,3.3c0.6,0.2,0.4,1.1-0.3,1c-5.3-1.4-10.7-2.5-16.2-3.2 c-0.2,1.4-0.4,2.8-0.6,4.1c4.4,0.5,8.7,1,13,1.8c0,0,0.1,0,0.1,0C366.2,110.9,371.9,107.4,377.7,104.1z M386.1,117.8 c-1.8-3-3.6-5.9-5.4-8.9c-2.6,1.6-5.3,3.2-7.9,4.8C377.3,114.8,381.8,116.2,386.1,117.8z M411.4,147.5c1.4,0.3,4-0.1,3.8-2.2 c-0.3-3.8-2.8-6.8-4.8-9.8c-1.8-2.6-3.6-5.1-5.4-7.6c-4-5.5-8.2-10.9-12.5-16.1c-1.3-0.1-2.7-0.3-4-0.7c-2.9-1-5.5-2.5-8-4.5 c4.6,7.6,9.2,15.3,14.2,22.6c2.7,4,5.6,8,8.8,11.7c1.3,1.5,2.6,3.1,4.1,4.4C408.6,146.2,410,147.2,411.4,147.5z M426.5,161.1 c-3.7-4.5-7.3-9.2-10.8-13.8c-0.5,0.6-1.3,1-2.2,1.1c4,4.5,7.8,9.1,11.4,13.9c0,0,0,0,0,0c0,0,0.1,0,0.1,0 C425.8,162.5,426.4,161.9,426.5,161.1z M324.5,81c-0.3-0.6-1.2-0.1-0.9,0.5c3.9,7.3,7.2,14.8,10,22.5c0.2,0.6,1.2,0.3,1-0.3 C331.8,95.9,328.4,88.3,324.5,81z M391.4,129.1c-9.8,9-19.5,18.1-29,27.4c-0.5,0.5,0.2,1.2,0.7,0.7c9.5-9.3,19.2-18.4,29-27.4 C392.6,129.4,391.9,128.7,391.4,129.1z M330,79.7c3.6,0.8,7.2,1.6,10.9,2.4c0.6,0.1,0.9-0.8,0.3-1c-3.6-0.8-7.2-1.5-10.9-2.4 C329.7,78.6,329.4,79.6,330,79.7z" fill="#281C22"/></g></g></svg>